<svg xmlns="http://www.w3.org/2000/svg" width="1290" height="2796" viewBox="0 0 1290 2796">
<defs>
  <linearGradient id="bg" x1="0" y1="0" x2="1" y2="1"><stop stop-color="#FBF8F1"/><stop offset="1" stop-color="#EDE4D7"/></linearGradient>
  <linearGradient id="phone" x1="0" y1="0" x2="1" y2="1"><stop stop-color="#30332C"/><stop offset="1" stop-color="#0F110E"/></linearGradient>
  <linearGradient id="screen" x1="0" y1="0" x2="1" y2="1"><stop stop-color="#FFFDF7"/><stop offset="1" stop-color="#F2EBDD"/></linearGradient>
  <filter id="shadow" x="-30%" y="-20%" width="160%" height="160%"><feDropShadow dx="0" dy="36" stdDeviation="34" flood-color="#2E271C" flood-opacity=".22"/></filter>
  <clipPath id="clip"><rect x="179" y="614" width="932" height="2078" rx="52"/></clipPath>
</defs>
<rect width="1290" height="2796" fill="url(#bg)"/>
<circle cx="1190" cy="92" r="320" fill="#C7E6D7" opacity=".72"/><circle cx="0" cy="2570" r="285" fill="#E7C0B2" opacity=".38"/>
<circle cx="88" cy="86" r="42" fill="#171914"/><text x="88" y="103" text-anchor="middle" fill="#DDAE3D" font-family="Georgia,serif" font-size="49" font-weight="700">P</text>
<text x="150" y="103" fill="#171914" font-family="Arial,sans-serif" font-size="38" font-weight="700">PingLet</text>
<text x="74" y="256" fill="#171914" font-family="Georgia,serif" font-size="78"><tspan x="74">The right thought.</tspan><tspan x="74" dy="91">Right when you need it.</tspan></text>
<rect x="74" y="463" width="104" height="8" rx="4" fill="#DDAE3D"/>
<rect x="149" y="574" width="992" height="2158" rx="82" fill="url(#phone)" filter="url(#shadow)"/>
<rect x="169" y="594" width="952" height="2118" rx="65" fill="url(#screen)"/>
<g clip-path="url(#clip)">
<rect x="179" y="614" width="932" height="2078" fill="url(#screen)"/>
<text x="236" y="714" fill="#B54B35" font-family="Arial" font-size="24" font-weight="700" letter-spacing="3">TODAY</text>
<text x="236" y="795" fill="#171914" font-family="Georgia" font-size="58">One good thought, kept close.</text>
<rect x="222" y="865" width="846" height="610" rx="46" fill="#151712"/>
<text x="266" y="940" fill="#DDAE3D" font-family="Arial" font-size="22" font-weight="700" letter-spacing="2">ON YOUR WIDGET</text>
<text x="266" y="1045" fill="#FAF7F0" font-family="Georgia" font-size="45"><tspan x="266">Confidence grows when your</tspan><tspan x="266" dy="62">actions become evidence for</tspan><tspan x="266" dy="62">the person you are becoming.</tspan></text>
<rect x="266" y="1340" width="68" height="6" rx="3" fill="#DDAE3D"/><text x="266" y="1400" fill="#A7A99F" font-family="Arial" font-size="22">A THOUGHT WORTH KEEPING</text>
<text x="236" y="1555" fill="#171914" font-family="Georgia" font-size="42">Coming up</text><text x="1030" y="1550" text-anchor="end" fill="#77786F" font-family="Arial" font-size="20">READY OFFLINE</text>
<rect x="222" y="1600" width="846" height="560" rx="40" fill="#FFFFFF" fill-opacity=".72" stroke="#171914" stroke-opacity=".11"/>
<text x="266" y="1690" fill="#B54B35" font-family="Arial" font-size="22">01</text><text x="330" y="1690" fill="#171914" font-family="Arial" font-size="27">Build evidence, not just confidence.</text>
<line x1="266" y1="1750" x2="1025" y2="1750" stroke="#171914" stroke-opacity=".1"/>
<text x="266" y="1840" fill="#B54B35" font-family="Arial" font-size="22">02</text><text x="330" y="1840" fill="#171914" font-family="Arial" font-size="27">Protect the work that matters most.</text>
<line x1="266" y1="1900" x2="1025" y2="1900" stroke="#171914" stroke-opacity=".1"/>
<text x="266" y="1990" fill="#B54B35" font-family="Arial" font-size="22">03</text><text x="330" y="1990" fill="#171914" font-family="Arial" font-size="27">Small ideas compound when they return.</text>
<rect x="179" y="2520" width="932" height="172" fill="#FFFDF7"/><line x1="179" y1="2520" x2="1111" y2="2520" stroke="#171914" stroke-opacity=".09"/>
<text x="272" y="2585" text-anchor="middle" font-family="Arial" font-size="31">⌂</text><text x="272" y="2642" text-anchor="middle" font-family="Arial" font-size="20">Home</text>
<text x="442" y="2585" text-anchor="middle" font-family="Arial" font-size="31">▮</text><text x="442" y="2642" text-anchor="middle" font-family="Arial" font-size="20">Library</text>
<circle cx="645" cy="2580" r="56" fill="#DDAE3D"/><text x="645" y="2594" text-anchor="middle" font-family="Arial" font-size="47">+</text>
<text x="848" y="2585" text-anchor="middle" font-family="Arial" font-size="31">◈</text><text x="848" y="2642" text-anchor="middle" font-family="Arial" font-size="20">Explore</text>
<text x="1018" y="2585" text-anchor="middle" font-family="Arial" font-size="31">⚙</text><text x="1018" y="2642" text-anchor="middle" font-family="Arial" font-size="20">Settings</text>
</g>
<rect x="486" y="592" width="318" height="39" rx="20" fill="#171914"/>
</svg>
